<svg xmlns="http://www.w3.org/2000/svg" xmlns:xlink="http://www.w3.org/1999/xlink" version="1.0" id="Layer_1" x="0px" y="0px" viewBox="0 0 455 300" enable-background="new 0 0 355 82" xml:space="preserve">
<g>
	<g>
		<path fill="#F2F2F2" d="M104.16185,81.36872H7.74763c-3.7655,0-6.918-2.97736-6.918-6.83044V7.83522    c0-3.7655,3.06494-6.918,6.918-6.918h96.41422c3.7655,0,6.91801,3.06494,6.91801,6.918v66.6155    C110.99229,78.39136,107.92735,81.36872,104.16185,81.36872L104.16185,81.36872z"/>
		<path opacity="0.1" fill="#221F1F" enable-background="new    " d="M14.57807,81.36872l41.24532-30.18651l0.26271-1.75139    L13.6148,18.869l-0.08757,61.01104L14.57807,81.36872z"/>
		<path fill="#D44C3D" d="M7.74763,81.36872c-3.85307,0-6.918-2.97736-6.918-6.83044V7.74765    c0-3.85307,3.06494-4.55362,6.918-4.55362s6.918,0.78813,6.918,4.55362v73.62107H7.74763L7.74763,81.36872z"/>
		<path fill="#D44C3D" d="M7.74763,4.24487c4.9039,0,5.86717,1.48868,5.86717,3.50279v72.65781H7.74763    c-3.24008,0-5.86717-2.62709-5.86717-5.86716V7.74765C1.79289,5.64598,2.84373,4.24487,7.74763,4.24487L7.74763,4.24487z     M7.74763,3.2816c-3.85307,0-6.918,0.78813-6.918,4.46605v66.70307c0,3.94064,3.06494,6.918,6.918,6.918h6.918V7.74765    C14.57807,3.98216,11.6007,3.2816,7.74763,3.2816L7.74763,3.2816L7.74763,3.2816z"/>
		<path fill="#D44C3D" d="M104.16185,4.24487c4.46605,0,5.86716,0.8757,5.86716,3.32765v67.05334    c0,3.24007-2.62709,5.86716-5.86716,5.86716h-5.86716V7.57251C98.20711,5.03299,99.6958,4.24487,104.16185,4.24487    L104.16185,4.24487z M104.16185,3.2816c-3.85307,0-6.91801,0.52542-6.91801,4.29091V81.4563h6.91801    c3.85307,0,6.91801-3.06494,6.91801-6.91801V7.48495C110.99229,3.71945,107.92735,3.2816,104.16185,3.2816L104.16185,3.2816    L104.16185,3.2816z"/>
		<path fill="#D44C3D" d="M104.16185,81.36872h-6.91801V7.57251c0-3.85307,3.06494-4.29091,6.91801-4.29091    s6.91801,0.52542,6.91801,4.29091v67.05334C110.99229,78.39136,107.92735,81.36872,104.16185,81.36872L104.16185,81.36872z"/>
		<path opacity="0.08" fill="#221F1F" enable-background="new    " d="M74.65087,81.36872L1.44261,10.63745l3.85307,1.57625    l50.96556,36.6917l54.81862-40.19448v65.91493c0,3.7655-3.06494,6.83044-6.91801,6.83044L74.65087,81.36872L74.65087,81.36872z"/>
		<path fill="#D44C3D" d="M55.82339,51.26979L3.807,13.52725c-3.06494-2.27681-3.94064-6.6553-1.66382-9.72023    s6.6553-3.7655,9.8078-1.48868l43.95998,31.96293l44.22269-32.40078c3.06494-2.27681,7.35586-1.57625,9.63267,1.57625    c2.27681,3.06494,1.57626,7.35585-1.57626,9.63266L55.82339,51.26979L55.82339,51.26979z"/>
		<path fill="#D44C3D" d="M104.16185,1.61778L104.16185,1.61778c1.83896,0,3.67793,0.8757,4.81633,2.45195    c1.83897,2.62709,1.31355,6.30502-1.31355,8.23155L55.82339,50.04381L4.41998,12.73913    C1.79289,10.81259,1.09234,7.0471,2.9313,4.50758c1.05084-1.57625,2.8898-2.53952,4.9039-2.53952    c1.31355,0,2.53952,0.35028,3.50279,1.13841L55.2104,34.98183l0.61299,0.35028l0.61299-0.35028L100.5715,2.58104    C101.7099,1.96805,102.8483,1.61778,104.16185,1.61778L104.16185,1.61778z M104.16185,0.56694    c-1.40112,0-2.8898,0.35028-4.02821,1.31355L55.91096,34.28127L11.86341,2.23076C10.725,1.35507,9.23632,0.91722,7.74763,0.91722    C5.55839,1.00479,3.36915,1.96805,2.0556,3.80702c-2.18924,3.06494-1.31355,7.35585,1.75139,9.63266l52.0164,37.8301    l52.36667-38.18038c3.06493-2.27681,3.7655-6.48016,1.57626-9.63267C108.3652,1.61778,106.26353,0.56694,104.16185,0.56694    L104.16185,0.56694L104.16185,0.56694z"/>
	</g>
	<g>
		<path fill="#787879" d="M208.1904,43.39795c0,8.27148-2.4541,14.86133-7.36133,19.76758    c-5.51465,5.8457-12.76562,8.76758-21.75293,8.76758c-8.60156,0-15.87988-2.97754-21.83496-8.93262    s-8.93262-13.28809-8.93262-22.00098c0-8.71094,2.97754-16.04492,8.93262-22s13.2334-8.93262,21.83496-8.93262    c4.35547,0,8.46387,0.77246,12.32422,2.31543c3.8584,1.54395,7.03027,3.72168,9.51074,6.53418l-5.45801,5.45898    c-1.82031-2.20508-4.17676-3.92871-7.07227-5.16992c-2.89453-1.24023-5.99609-1.86035-9.30469-1.86035    c-6.45117,0-11.91016,2.23242-16.37598,6.69922c-4.41211,4.52148-6.61719,10.17285-6.61719,16.95508    s2.20508,12.43555,6.61719,16.95605c4.46582,4.46582,9.9248,6.69922,16.37598,6.69922c5.89941,0,10.80664-1.6543,14.72266-4.96289    c3.91406-3.30762,6.1748-7.85742,6.78223-13.64648h-21.50488v-7.11328h28.7002    C208.05173,40.47607,208.1904,41.96533,208.1904,43.39795z"/>
		<path fill="#787879" d="M223.73923,70.60986h-7.60938V30.08252h7.27832v5.62402h0.33105    c1.1582-1.98535,2.93555-3.63965,5.33496-4.96289c2.39844-1.32324,4.78223-1.98438,7.1543-1.98438    c2.97754,0,5.5957,0.68945,7.85742,2.06738c2.25977,1.37891,3.91406,3.28125,4.96191,5.70703    c3.36328-5.18262,8.02344-7.77441,13.97852-7.77441c4.68555,0,8.29785,1.43359,10.83496,4.30078    c2.53516,2.86719,3.80469,6.94727,3.80469,12.24023v25.30957h-7.60938V46.4585c0-3.80469-0.69043-6.54688-2.06836-8.22949    c-1.37891-1.68164-3.69434-2.52246-6.94727-2.52246c-2.92285,0-5.37598,1.24023-7.36133,3.72168    c-1.98438,2.48145-2.97754,5.4043-2.97754,8.76758v22.41406h-7.60938V46.4585c0-3.80469-0.68945-6.54688-2.06738-8.22949    c-1.37891-1.68164-3.69434-2.52246-6.94727-2.52246c-2.92383,0-5.37695,1.24023-7.36133,3.72168    c-1.98535,2.48145-2.97754,5.4043-2.97754,8.76758V70.60986z"/>
		<path fill="#787879" d="M301.56833,28.75928c5.62402,0,10.0625,1.50293,13.31641,4.50684    c3.25293,3.00586,4.87988,7.12793,4.87988,12.36523v24.97852h-7.27832v-5.62402h-0.33105    c-3.14258,4.63184-7.33398,6.94727-12.57227,6.94727c-4.46582,0-8.20215-1.32324-11.20703-3.96973    c-3.00586-2.64648-4.50781-5.95508-4.50781-9.92578c0-4.18945,1.58496-7.52637,4.75586-10.00781    c3.1709-2.48047,7.40332-3.72168,12.69629-3.72168c4.52051,0,8.24219,0.82715,11.16602,2.48145v-1.7373    c0-2.64648-1.04785-4.89258-3.14355-6.74023c-2.0957-1.84668-4.54883-2.77148-7.36035-2.77148    c-4.24707,0-7.60938,1.79297-10.09082,5.37695l-6.69922-4.21875C288.88571,31.40576,294.3447,28.75928,301.56833,28.75928z     M291.72556,58.20361c0,1.98438,0.84082,3.63867,2.52344,4.96191c1.68066,1.32422,3.65137,1.98535,5.91309,1.98535    c3.19727,0,6.05078-1.18457,8.56055-3.55664c2.50879-2.37012,3.76367-5.15527,3.76367-8.35352    c-2.37207-1.87402-5.67969-2.81152-9.92578-2.81152c-3.08789,0-5.66504,0.74414-7.7334,2.23242    C292.75974,54.15088,291.72556,55.99854,291.72556,58.20361z"/>
		<path fill="#787879" d="M338.20895,16.104c0,1.48926-0.52539,2.75781-1.57227,3.80469    c-1.04785,1.04785-2.31543,1.57129-3.80469,1.57129c-1.48828,0-2.75781-0.52344-3.80469-1.57129    c-1.04785-1.04688-1.57129-2.31543-1.57129-3.80469c0-1.48828,0.52344-2.75586,1.57129-3.80469    c1.04688-1.04688,2.31641-1.57129,3.80469-1.57129c1.48926,0,2.75684,0.52441,3.80469,1.57129    C337.68356,13.34814,338.20895,14.61572,338.20895,16.104z M336.63669,30.08252v40.52734h-7.60938V30.08252H336.63669z"/>
		<path fill="#787879" d="M354.17038,11.39014v59.21973H346.561V11.39014H354.17038z"/>
	</g>
</g>
</svg>