<?xml version="1.0" encoding="UTF-8" standalone="no"?>
<!-- Generator: Adobe Illustrator 16.0.1, SVG Export Plug-In . SVG Version: 6.00 Build 0)  -->
<!DOCTYPE svg  PUBLIC '-//W3C//DTD SVG 1.1//EN'  'http://www.w3.org/Graphics/SVG/1.1/DTD/svg11.dtd'>
<svg id="Layer_1" xmlns="http://www.w3.org/2000/svg" xml:space="preserve" height="13.392px" viewBox="0 0 26.484 13.392" width="26.484px" version="1.1" y="0px" x="0px" xmlns:xlink="http://www.w3.org/1999/xlink" enable-background="new 0 0 26.484 13.392">
	<path d="m10.231 3.305c0.791 0.313 1.564 0.646 2.338 1.003-2.453 0.992-4.816 2.171-7.078 3.52-0.764-0.399-1.539-0.779-2.323-1.135 2.254-1.313 4.613-2.447 7.063-3.388" fill="#1E529E"/>
	<path d="m7.311 2.274c-2.541 0.808-4.991 1.858-7.311 3.14 0.739 0.266 1.474 0.551 2.196 0.855 2.25-1.323 4.625-2.436 7.097-3.319-0.653-0.242-1.314-0.469-1.982-0.676" fill="#1E529E"/>
	<path d="m15.542 3.205c-2-0.965-4.075-1.781-6.208-2.431-0.75 0.218-1.496 0.453-2.234 0.708 2.2 0.649 4.34 1.475 6.396 2.46 0.672-0.258 1.359-0.506 2.046-0.737" fill="#E11B32"/>
	<path d="m18.804 2.231c-2.049-0.892-4.161-1.638-6.323-2.231-0.688 0.144-1.374 0.301-2.05 0.478 2.146 0.626 4.23 1.419 6.241 2.364 0.707-0.218 1.416-0.421 2.132-0.611" fill="#E11B32"/>
	<path d="m24.04 3.994c-5.132 1.728-9.938 4.191-14.286 7.274 1.087 0.667 2.147 1.376 3.18 2.123 4.102-3.251 8.649-5.961 13.55-8.02-0.804-0.481-1.616-0.942-2.444-1.377" fill="#E11B32"/>
	<path d="m20.51 2.313c-5.332 1.412-10.35 3.69-14.87 6.687 1.017 0.5 2.02 1.039 3 1.604 4.431-3.063 9.348-5.453 14.592-7.027-0.896-0.451-1.8-0.87-2.722-1.264" fill="#E11B32"/>
</svg>
